<svg xmlns="http://www.w3.org/2000/svg" width="32" height="32" viewBox="0 0 32 32">
  <style>
    .primary {
      fill: #7c3aed; /* primary violet-600 */
    }
    .secondary {
      fill: #a78bfa; /* violet-400 */
    }
    .accent {
      fill: #8b5cf6; /* violet-500 */
    }
    .circle-outer {
      fill: none;
      stroke: #7c3aed;
      stroke-width: 2;
    }
    .circle-inner {
      fill: none;
      stroke: #a78bfa;
      stroke-width: 1;
      stroke-dasharray: 4 2;
    }

    /* Coin styling */
    .coin-edge {
      fill: none;
      stroke: #7c3aed;
      stroke-width: 1;
    }
    .coin-face {
      fill: #c4b5fd;
      opacity: 0.3;
    }
    
    @media (prefers-color-scheme: dark) {
      .primary { fill: #a78bfa; }
      .secondary { fill: #c4b5fd; }
      .accent { fill: #ddd6fe; }
      .circle-outer { stroke: #a78bfa; }
      .circle-inner { stroke: #c4b5fd; }
      .coin-edge { stroke: #a78bfa; }
      .coin-face { fill: #ddd6fe; opacity: 0.2; }
    }
  </style>
  
  <g>
    <!-- Main circle -->
    <circle cx="16" cy="16" r="15" class="circle-outer" />
    
    <!-- Inner pattern -->
    <circle cx="16" cy="16" r="10" class="circle-inner" />
    
    <!-- "B" letter instead of dollar sign - Representing "Budget Buddy" -->
    <path d="M12 8h4c2 0 4 1.5 4 3.5S18 15 16 15h-4v-7zM12 15h5c2 0 4 1.5 4 3.5S19 22 17 22h-5V15z" 
          stroke-width="2" 
          stroke-linecap="round" 
          stroke-linejoin="round"
          stroke="#7c3aed"
          class="primary" 
          fill="none" />
    
    <!-- Coins floating around -->
    <g>
      <!-- Coin 1 -->
      <circle cx="22" cy="10" r="2.5" class="coin-face" />
      <circle cx="22" cy="10" r="2.5" class="coin-edge" />
      <path d="M22 9v2M23 10h-2" stroke="#7c3aed" stroke-width="0.5" class="primary" />
      
      <!-- Coin 2 -->
      <circle cx="8" cy="20" r="2.5" class="coin-face" />
      <circle cx="8" cy="20" r="2.5" class="coin-edge" />
      <path d="M8 19v2M9 20H7" stroke="#7c3aed" stroke-width="0.5" class="primary" />
    </g>
    
    <!-- Decorative elements -->
    <circle cx="16" cy="5" r="1.5" class="accent" />
    <circle cx="16" cy="27" r="1.5" class="accent" />
    <circle cx="5" cy="16" r="1" class="secondary" />
    <circle cx="27" cy="16" r="1" class="secondary" />
  </g>
</svg> 